<svg viewBox="0 0 32 33" xmlns="http://www.w3.org/2000/svg">
    <path
        d="M2.6665 7.16699L11.9998 3.16699L19.9998 7.16699L28.4038 3.56526C28.7424 3.42022 29.1342 3.57698 29.2793 3.91541C29.3148 3.99839 29.3332 4.08774 29.3332 4.17802V25.8337L19.9998 29.8337L11.9998 25.8337L3.59578 29.4354C3.25736 29.5805 2.86545 29.4237 2.72041 29.0853C2.68484 29.0023 2.6665 28.9129 2.6665 28.8226V7.16699ZM21.3332 26.361L26.6665 24.0753V7.2111L21.3332 9.49681V26.361ZM18.6665 26.1855V9.48175L13.3332 6.81509V23.5189L18.6665 26.1855ZM10.6665 23.5038V6.63967L5.33317 8.92538V25.7895L10.6665 23.5038Z" />
</svg>